# xmcd
#
# Track frame offsets: 
#        150
#        19204
#        36139
#        53006
#        72312
#        84776
#        103925
#        118687
#        142076
#        154248
#        166658
#        175245
#        195173
#        212627
#
# Disc length: 2992 seconds
#
# Revision: 0
# Processed by: cddbd v1.5.2PL0 Copyright (c) Steve Scherf et al.
# Submitted via: ExactAudioCopy v0.99pb4
#
DISCID=b70bae0e
DTITLE=Annette Sanders - No Free Jam
DYEAR=2000
DGENRE=Jazz
TTITLE0=At The Stardust
TTITLE1=One-Nighter
TTITLE2=The Only Thing
TTITLE3=Jazz Man
TTITLE4=No Free Jam
TTITLE5=I Don't Need A Friend
TTITLE6=Look Who's Here!
TTITLE7=Letting Go
TTITLE8=Have A Swingin' Birthday!
TTITLE9=You Can't Have It All
TTITLE10=I Want It All
TTITLE11=You
TTITLE12=Love, Pure And Simple
TTITLE13=Have A Swingin' Weekend!
EXTD=
EXTT0=
EXTT1=
EXTT2=
EXTT3=
EXTT4=
EXTT5=
EXTT6=
EXTT7=
EXTT8=
EXTT9=
EXTT10=
EXTT11=
EXTT12=
EXTT13=
PLAYORDER=
